<?xml version="1.0" encoding="utf-8"?>
<!-- Generator: Adobe Illustrator 21.1.0, SVG Export Plug-In . SVG Version: 6.00 Build 0)  -->
<svg version="1.1" xmlns="http://www.w3.org/2000/svg" xmlns:xlink="http://www.w3.org/1999/xlink" x="0px" y="0px"
	 viewBox="0 0 525 304" style="enable-background:new 0 0 525 304;" xml:space="preserve">
<style type="text/css">
	.st0{display:none;}
	.st1{display:inline;fill:#463279;}
	.st2{fill:url(#SVGID_1_);}
	.st3{fill:url(#SVGID_2_);}
	.st4{opacity:0.9;}
	.st5{filter:url(#Adobe_OpacityMaskFilter);}
	.st6{mask:url(#SVGID_3_);}
	.st7{fill:#FFFFFF;}
	.st8{filter:url(#Adobe_OpacityMaskFilter_1_);}
	.st9{mask:url(#SVGID_4_);}
	.st10{fill:none;stroke:#FFFFFF;stroke-width:2;stroke-linecap:round;stroke-linejoin:round;stroke-miterlimit:10;}
	.st11{filter:url(#Adobe_OpacityMaskFilter_2_);}
	.st12{mask:url(#SVGID_5_);}
	.st13{fill:url(#SVGID_6_);}
	.st14{fill:url(#SVGID_7_);}
	.st15{filter:url(#Adobe_OpacityMaskFilter_3_);}
	.st16{mask:url(#SVGID_8_);}
	.st17{filter:url(#Adobe_OpacityMaskFilter_4_);}
	.st18{mask:url(#SVGID_9_);}
	.st19{filter:url(#Adobe_OpacityMaskFilter_5_);}
	.st20{mask:url(#SVGID_10_);}
	.st21{fill:url(#SVGID_11_);}
	.st22{fill:url(#SVGID_12_);}
	.st23{opacity:0.71;}
	.st24{fill:#141414;}
	.st25{fill:url(#SVGID_13_);}
	.st26{fill:url(#SVGID_14_);}
	.st27{fill:url(#SVGID_15_);}
	.st28{filter:url(#Adobe_OpacityMaskFilter_6_);}
	.st29{mask:url(#SVGID_16_);}
	.st30{filter:url(#Adobe_OpacityMaskFilter_7_);}
	.st31{mask:url(#SVGID_17_);}
	.st32{filter:url(#Adobe_OpacityMaskFilter_8_);}
	.st33{mask:url(#SVGID_18_);}
	.st34{fill:url(#SVGID_19_);}
	.st35{opacity:0.8;}
	.st36{fill:#191919;}
	.st37{fill:url(#SVGID_20_);}
	.st38{fill:url(#SVGID_21_);}
	.st39{fill:url(#SVGID_22_);}
	.st40{fill:url(#SVGID_23_);}
	.st41{fill:url(#SVGID_24_);}
	.st42{fill:url(#SVGID_25_);}
	.st43{fill:url(#SVGID_26_);}
	.st44{fill:#98A6F1;}
	.st45{fill:#463279;}
	.st46{fill:#271147;}
	.st47{fill:url(#SVGID_27_);}
	.st48{fill:url(#SVGID_28_);}
	.st49{fill:url(#SVGID_29_);}
	.st50{fill:url(#SVGID_30_);}
	.st51{fill:url(#SVGID_31_);}
	.st52{fill:url(#SVGID_32_);}
	.st53{fill:url(#SVGID_33_);}
	.st54{fill:url(#SVGID_34_);}
	.st55{fill:url(#SVGID_35_);}
	.st56{fill:url(#SVGID_36_);}
	.st57{fill:url(#SVGID_37_);}
	.st58{fill:url(#SVGID_38_);}
</style>
<g id="Layer_2" class="st0">
	<rect y="-9" class="st1" width="540" height="325"/>
</g>
<g id="Layer_1">
	<g>
		<g>
			<path class="st7" d="M480.9,84.7c-1.5-4.8-20.1,0-20.1,0L459,167c0,0-11-62-21-81.3c-2.4-4.7-21,0-21,0s0.7,42.4,0.9,53
				c-0.5-8.9-3.9-29.7-26.9-29.7c-44.5,0-27,74.7-27,74.7s-31.6,21.9-35-22.8C324,96,360,113,360,113l2-15c0,0-8.1-6.8-27-3
				c-21,4.3-27,34.1-27,34.1s-9.5-18.6-29-18.1c-21.7,0.6-29.1,45.7-29.1,45.7L238,137c0,0,35.7-10,37-29c2-29-33.8-37.7-47-36.3
				c-27.9,3-104,46-104,46s2.3-41.5,0-53.7c-9-47-24.3-3.9-26,3c-2,8-6,35.7-6,35.7S81,51,70,45c-11.8-6.4-15,30-15,43l0,117.7h23
				l-1-81l15,34l15-36l1,83h21.7l32.3-16c0,0,3-15.5-1-18c-7.1-4.4-29,14-29,14l-1-15l19-10c0,0,3.3-12.7,0-14.8
				c-4.4-2.8-19,8.8-19,8.8v-18l43-23v92h22v-100l14-6v106h21l-0.5-44.8l21.5,44.8h24.5l-9-15c4.9,4.8,12.6,9.8,21.5,9.3
				c12-0.7,21.5-12.3,23-23.2c0.5,10.4,8.1,18.5,13,22.2c8,6,30,7,39,4c5.2-1.7,12-7,12-7s27.3,3.3,34-5c3.9-4.9,6-9.4,7-13.2v27.9
				h21l-2-59.7l14,60c0,0-14.3,20.8-22,23c-9.5,2.7-28.3-8.3-38-10c-9.6-1.7-29.8-0.4-39,3c-5.8,2.2-21,13-21,13s29-2.9,38,0
				c14.4,4.6,38.9,28.1,54,27c13.6-1,38.5-19,45-31C484.6,198.8,490,113,480.9,84.7z M60,85c0-4.8,3.3-30,7-30c3.7,0,12,24.2,12,29
				C79,88.8,60,89.8,60,85z M120.1,85.3c-0.7,4.8-19.6,3.1-18.9-1.7c0.7-4.8,7.6-29.2,11.2-28.7C116,55.4,120.8,80.5,120.1,85.3z
				 M229,92c3.7,0,27.3,2,28,11c1,13-24.3,20-28,20C225.3,123,225.3,92,229,92z M282.3,173.9c-5.2,0-9.5-9-9.5-20.2
				s4.3-20.2,9.5-20.2s9.5,9,9.5,20.2S287.6,173.9,282.3,173.9z M389.7,171.9c-5.2,0-9.5-9-9.5-20.2s4.3-20.2,9.5-20.2
				s9.5,9,9.5,20.2S394.9,171.9,389.7,171.9z"/>
		</g>
	</g>
</g>
</svg>
